HIERARCHY
ROOT Hips
{
	OFFSET 0.00000 0.00000 0.00000
	CHANNELS 6 Xposition Yposition Zposition Zrotation Yrotation Xrotation 
	JOINT LHipJoint
	{
		OFFSET 0 0 0
		CHANNELS 3 Zrotation Yrotation Xrotation
		JOINT LeftHip
		{
			OFFSET 1.58895 -1.83665 0.71753
			CHANNELS 3 Zrotation Yrotation Xrotation
			JOINT LeftKnee
			{
				OFFSET 2.50528 -6.88321 0.00000
				CHANNELS 3 Zrotation Yrotation Xrotation
				JOINT LeftAnkle
				{
					OFFSET 2.63244 -7.23257 0.00000
					CHANNELS 3 Zrotation Yrotation Xrotation
					JOINT LeftToe
					{
						OFFSET 0.23691 -0.65090 1.72750
						CHANNELS 3 Zrotation Yrotation Xrotation
						End Site
						{
							OFFSET 0.00000 -0.00000 0.92561
						}
					}
				}
			}
		}
	}
	JOINT RHipJoint
	{
		OFFSET 0 0 0
		CHANNELS 3 Zrotation Yrotation Xrotation
		JOINT RightHip
		{
			OFFSET -1.51435 -1.83665 0.71753
			CHANNELS 3 Zrotation Yrotation Xrotation
			JOINT RightKnee
			{
				OFFSET -2.54551 -6.99375 0.00000
				CHANNELS 3 Zrotation Yrotation Xrotation
				JOINT RightAnkle
				{
					OFFSET -2.66027 -7.30903 0.00000
					CHANNELS 3 Zrotation Yrotation Xrotation
					JOINT RightToe
					{
						OFFSET -0.22981 -0.63138 2.03959
						CHANNELS 3 Zrotation Yrotation Xrotation
						End Site
						{
							OFFSET -0.00000 -0.00000 1.07060
						}
					}
				}
			}
		}
	}
	JOINT lowerback
	{
		OFFSET 0 0 0
		CHANNELS 3 Zrotation Yrotation Xrotation
		JOINT Chest
		{
			OFFSET -0.02651 1.86275 -0.11152
			CHANNELS 3 Zrotation Yrotation Xrotation
			JOINT Chest2
			{
				OFFSET 0.01019 1.86224 0.04087
				CHANNELS 3 Zrotation Yrotation Xrotation
				JOINT lowerneck
				{
					OFFSET 0 0 0
					CHANNELS 3 Zrotation Yrotation Xrotation
					JOINT Neck
					{
						OFFSET -0.01926 1.80512 0.08867
						CHANNELS 3 Zrotation Yrotation Xrotation
						JOINT Head
						{
							OFFSET 0.05516 1.76451 -0.38475
							CHANNELS 3 Zrotation Yrotation Xrotation
							End Site
							{
								OFFSET 0.01592 1.82587 -0.14001
							}
						}
					}
				}
				JOINT LeftCollar
				{
					OFFSET 0 0 0
					CHANNELS 3 Zrotation Yrotation Xrotation
					JOINT LeftShoulder
					{
						OFFSET 3.47116 1.51376 0.14491
CHANNELS 3 Zrotation Xrotation Yrotation
						JOINT LeftElbow
						{
OFFSET 0 -4.780950 0.000000
CHANNELS 3 Zrotation Xrotation Yrotation
							JOINT LeftWrist
							{
OFFSET 0 -3.586150 -0.000000
CHANNELS 3 Zrotation Xrotation Yrotation
								JOINT lhand
								{
									OFFSET 0 0 0
CHANNELS 3 Zrotation Xrotation Yrotation
									JOINT LFingers
									{
OFFSET 0 -0.659810 0.000000
CHANNELS 3 Zrotation Xrotation Yrotation
										End Site
										{
OFFSET 0 -0.531960 0.000000
										}
									}
								}
								JOINT LThumb
								{
OFFSET 0 0.000000 0.000000
CHANNELS 3 Zrotation Xrotation Yrotation
									End Site
									{
OFFSET 0 -0.540080 0.540080
									}
								}
							}
						}
					}
				}
				JOINT RightCollar
				{
					OFFSET 0 0 0
					CHANNELS 3 Zrotation Yrotation Xrotation
					JOINT RightShoulder
					{
						OFFSET -3.31725 1.61216 0.35156
CHANNELS 3 Zrotation Xrotation Yrotation
						JOINT RightElbow
						{
OFFSET 0 -4.489130 0.000000
CHANNELS 3 Zrotation Xrotation Yrotation
							JOINT RightWrist
							{
OFFSET 0 -3.705100 0.000000
CHANNELS 3 Zrotation Xrotation Yrotation
								JOINT rhand
								{
									OFFSET 0 0 0
CHANNELS 3 Zrotation Xrotation Yrotation
									JOINT RFingers
									{
OFFSET 0 -0.449140 0.000000
CHANNELS 3 Zrotation Xrotation Yrotation
										End Site
										{
OFFSET 0 -0.362110 0.000000
										}
									}
								}
								JOINT RThumb
								{
OFFSET 0 0.000000 0.000000
CHANNELS 3 Zrotation Xrotation Yrotation
									End Site
									{
OFFSET 0 -0.367630 0.367630
									}
								}
							}
						}
					}
				}
			}
		}
	}
}
MOTION
Frames: 10
Frame Time: 0.008333333333333333
-1.011400 18.087300 5.794200 -5.976300 -4.767900 -0.657500 0.000000 0.000000 0.000000 -10.292300 -1.593100 22.637300 1.188300 -6.917700 -19.471700 -1.390600 20.977200 -13.634600 0.091400 -1.949400 -5.365800 0.000000 0.000000 0.000000 21.880700 -3.271800 9.135400 0.000000 0.000000 -0.000000 -0.757300 -1.994400 -17.276800 -0.202200 -2.895200 7.987100 5.108500 1.891500 2.015300 0.985700 2.664500 -0.356600 -1.924700 1.294200 -1.311500 -0.613200 -2.376300 -11.586500 3.710900 -4.016500 21.034700 0.916400 -1.568900 8.548600 -0.000000 0.000000 0.000000 -0.726200 12.008500 -30.846000 22.529200 -33.570000 6.876200 5.793100 6.705600 25.020100 0.000000 0.000000 0.000000 -7.125000 0.000000 0.000000 -14.443300 5.503700 -13.435300 -0.000000 0.000000 0.000000 1.024500 15.985800 26.536600 -23.417000 -34.541600 -7.373400 -8.467200 24.852800 26.156300 0.000000 0.000000 0.000000 7.125000 0.000000 -0.000000 22.716000 54.906100 -5.746700
-1.012341 18.087281 5.794422 -5.992975 -4.795873 -0.651236 0.000000 0.000000 0.000000 -10.265313 -1.558157 22.630552 1.188668 -6.918762 -19.474987 -1.388346 20.964952 -13.640779 0.088814 -1.922035 -5.290192 0.000000 0.000000 0.000000 21.904367 -3.244599 9.137556 0.000000 0.000000 0.000000 -0.756819 -2.005278 -17.277337 -0.198914 -2.871735 7.921806 5.107395 1.897679 1.998626 0.996684 2.671271 -0.344715 -1.911980 1.298327 -1.290061 -0.592395 -2.379214 -11.567791 3.683371 -4.016197 20.982709 0.903856 -1.570965 8.526452 0.000000 0.000000 0.000000 -0.728724 11.981448 -30.844584 22.530659 -33.571611 6.876998 5.851144 6.695892 24.977763 0.000000 0.000000 0.000000 -7.125000 0.000000 0.000000 -14.408345 5.539614 -13.390403 0.000000 0.000000 0.000000 1.005827 15.990562 26.578262 -23.433367 -34.559327 -7.382657 -8.349771 24.789112 26.259326 0.000000 0.000000 0.000000 7.125000 0.000000 0.000000 22.895611 54.978412 -5.837026
-1.012654 18.087800 5.795443 -6.010477 -4.831990 -0.630468 0.000000 0.000000 0.000000 -10.258288 -1.604672 22.642058 1.189262 -6.920287 -19.479506 -1.393445 21.011657 -13.714292 0.089576 -1.930067 -5.312443 0.000000 0.000000 0.000000 21.925080 -3.203920 9.130826 0.000000 0.000000 0.000000 -0.754921 -2.003139 -17.255864 -0.199216 -2.874196 7.928808 5.144317 1.903597 1.945654 0.995354 2.675740 -0.324096 -1.931419 1.301835 -1.237034 -0.580419 -2.382311 -11.566713 3.665993 -4.016937 20.933736 0.895945 -1.573003 8.509042 0.000000 0.000000 0.000000 -0.726564 11.932381 -30.812571 22.553907 -33.597377 6.889852 5.913271 6.729669 24.894883 0.000000 0.000000 0.000000 -7.125000 0.000000 0.000000 -14.370665 5.614316 -13.331895 0.000000 0.000000 0.000000 1.007217 15.944646 26.599119 -23.427787 -34.553271 -7.379504 -8.338968 24.839650 26.369817 0.000000 0.000000 0.000000 7.125000 0.000000 0.000000 22.976283 55.077684 -5.915978
-1.012962 18.087597 5.796141 -6.016379 -4.855051 -0.622185 0.000000 0.000000 0.000000 -10.261876 -1.637302 22.659455 1.189943 -6.922249 -19.485166 -1.399622 21.056021 -13.748004 0.092333 -1.959623 -5.393976 0.000000 0.000000 0.000000 21.934015 -3.177933 9.125094 0.000000 0.000000 0.000000 -0.750632 -2.013009 -17.214308 -0.198461 -2.868926 7.914007 5.168911 1.899491 1.905645 0.998015 2.667441 -0.303072 -1.940204 1.298955 -1.192517 -0.607051 -2.379447 -11.570284 3.682556 -4.010027 20.906136 0.906647 -1.570618 8.501055 0.000000 0.000000 0.000000 -0.738566 11.872714 -30.781301 22.557357 -33.601192 6.891796 5.942255 6.772962 24.832931 0.000000 0.000000 0.000000 -7.125000 0.000000 0.000000 -14.352921 5.671825 -13.298170 0.000000 0.000000 0.000000 1.005551 15.888589 26.575804 -23.425474 -34.550779 -7.378202 -8.225304 24.853642 26.374815 0.000000 0.000000 0.000000 7.125000 0.000000 0.000000 23.090544 55.060422 -5.937782
-1.013362 18.087192 5.796416 -6.022024 -4.839874 -0.626585 0.000000 0.000000 0.000000 -10.249349 -1.629695 22.662893 1.190949 -6.925039 -19.493417 -1.398069 21.042695 -13.730176 0.093267 -1.969732 -5.421986 0.000000 0.000000 0.000000 21.941216 -3.195040 9.126285 0.000000 0.000000 0.000000 -0.752937 -2.010356 -17.237622 -0.195689 -2.848788 7.857916 5.173183 1.883321 1.900450 1.001646 2.645362 -0.295892 -1.938023 1.288250 -1.183755 -0.598769 -2.370429 -11.565157 3.677159 -3.997522 20.894443 0.904902 -1.564892 8.495543 0.000000 0.000000 0.000000 -0.752414 11.830123 -30.717012 22.538404 -33.580135 6.881295 5.948474 6.837038 24.835503 0.000000 0.000000 0.000000 -7.125000 0.000000 0.000000 -14.349209 5.668753 -13.295329 0.000000 0.000000 0.000000 0.985264 15.862478 26.598180 -23.446073 -34.573001 -7.389902 -8.039591 24.717110 26.284215 0.000000 0.000000 0.000000 7.125000 0.000000 0.000000 23.214228 54.942014 -5.903729
-1.013500 18.086897 5.797073 -6.016108 -4.811776 -0.633239 0.000000 0.000000 0.000000 -10.256055 -1.655352 22.680389 1.192041 -6.928155 -19.502698 -1.399305 21.048989 -13.723719 0.093914 -1.976553 -5.440958 0.000000 0.000000 0.000000 21.932571 -3.225303 9.129085 0.000000 0.000000 0.000000 -0.758372 -1.985638 -17.284515 -0.198245 -2.867197 7.909152 5.178505 1.872184 1.907636 0.994636 2.631005 -0.295800 -1.948122 1.280901 -1.188205 -0.605253 -2.359818 -11.563434 3.702665 -3.987070 20.894611 0.915672 -1.557876 8.495779 0.000000 0.000000 0.000000 -0.755013 11.783945 -30.651297 22.503450 -33.541348 6.861992 5.876968 6.914566 24.927496 0.000000 0.000000 0.000000 -7.125000 0.000000 0.000000 -14.392570 5.586009 -13.361684 0.000000 0.000000 0.000000 0.971698 15.847522 26.629663 -23.476878 -34.606166 -7.407391 -7.779409 24.540117 26.258487 0.000000 0.000000 0.000000 7.125000 0.000000 0.000000 23.451477 54.868991 -5.926560
-1.013662 18.086394 5.797706 -5.995816 -4.800124 -0.648276 0.000000 0.000000 0.000000 -10.278078 -1.644763 22.691732 1.191894 -6.927764 -19.501573 -1.401006 21.052138 -13.690538 0.098944 -2.028128 -5.583369 0.000000 0.000000 0.000000 21.907771 -3.239079 9.134649 0.000000 0.000000 0.000000 -0.760106 -1.971147 -17.296436 -0.203370 -2.903814 8.011107 5.174364 1.873015 1.926146 0.982537 2.633525 -0.305861 -1.959196 1.281504 -1.208323 -0.633535 -2.353106 -11.526276 3.757707 -3.984170 20.900679 0.939576 -1.553547 8.492711 0.000000 0.000000 0.000000 -0.732231 11.796680 -30.692347 22.528137 -33.568732 6.875635 5.760063 6.933315 24.947726 0.000000 0.000000 0.000000 -7.125000 0.000000 0.000000 -14.462862 5.576839 -13.434053 0.000000 0.000000 0.000000 0.995327 15.856033 26.594425 -23.500680 -34.631816 -7.420914 -7.408134 24.364254 26.265306 0.000000 0.000000 0.000000 7.125000 0.000000 0.000000 23.817101 54.804932 -5.988900
-1.014268 18.086016 5.798368 -5.980173 -4.803365 -0.665588 0.000000 0.000000 0.000000 -10.289273 -1.601448 22.690234 1.190475 -6.923714 -19.489630 -1.397219 21.024880 -13.670611 0.105112 -2.090205 -5.754992 0.000000 0.000000 0.000000 21.889859 -3.242482 9.153312 0.000000 0.000000 0.000000 -0.761431 -1.963921 -17.306450 -0.204295 -2.910268 8.028920 5.161646 1.873505 1.941827 0.976998 2.635452 -0.322020 -1.958907 1.281616 -1.233903 -0.634976 -2.346426 -11.462431 3.773521 -3.977942 20.907395 0.946529 -1.549876 8.483475 0.000000 0.000000 0.000000 -0.703909 11.867935 -30.790103 22.599726 -33.648136 6.915223 5.640772 6.870237 24.926515 0.000000 0.000000 0.000000 -7.125000 0.000000 0.000000 -14.534361 5.608020 -13.496205 0.000000 0.000000 0.000000 1.017192 15.885120 26.567215 -23.516022 -34.648273 -7.429615 -7.073072 24.251033 26.182764 0.000000 0.000000 0.000000 7.125000 0.000000 0.000000 24.089374 54.666511 -5.980174
-1.015398 18.085949 5.799016 -5.961693 -4.780852 -0.676376 0.000000 0.000000 0.000000 -10.306600 -1.613844 22.688229 1.188169 -6.917324 -19.470687 -1.392824 21.000036 -13.677317 0.101542 -2.055213 -5.658251 0.000000 0.000000 0.000000 21.872581 -3.270825 9.165154 0.000000 0.000000 0.000000 -0.761004 -1.963281 -17.301350 -0.207870 -2.935698 8.099776 5.129260 1.867247 1.928748 0.978999 2.625590 -0.321313 -1.938071 1.277133 -1.228140 -0.630710 -2.327091 -11.413099 3.760019 -3.949015 20.917550 0.944990 -1.537707 8.476699 0.000000 0.000000 0.000000 -0.714376 11.870736 -30.803276 22.600546 -33.649030 6.915661 5.603927 6.831763 25.063064 0.000000 0.000000 0.000000 -7.125000 0.000000 0.000000 -14.556893 5.479008 -13.555491 0.000000 0.000000 0.000000 1.009890 15.881546 26.591266 -23.529188 -34.662378 -7.437030 -6.935533 24.245947 26.147162 0.000000 0.000000 0.000000 7.125000 0.000000 0.000000 24.199956 54.608317 -5.975035
-1.016782 18.086695 5.799309 -5.946117 -4.752807 -0.667396 0.000000 0.000000 0.000000 -10.315615 -1.620283 22.662996 1.186526 -6.912601 -19.456724 -1.388622 20.974281 -13.675177 0.096834 -2.006919 -5.524837 0.000000 0.000000 0.000000 21.859746 -3.297015 9.156446 0.000000 0.000000 0.000000 -0.759082 -1.953710 -17.276382 -0.211030 -2.957781 8.161192 5.095917 1.871244 1.912096 0.972851 2.629725 -0.340723 -1.925769 1.278846 -1.239647 -0.693083 -2.199849 -11.381165 3.783219 -3.767774 21.018583 0.983302 -1.453385 8.501862 0.000000 0.000000 0.000000 -0.703617 11.891132 -30.827974 22.603712 -33.652663 6.917442 5.560429 6.851434 25.187712 0.000000 0.000000 0.000000 -7.125000 0.000000 0.000000 -14.583344 5.362177 -13.615319 0.000000 0.000000 0.000000 1.032177 15.912399 26.588058 -23.544482 -34.678899 -7.445836 -6.844865 24.233116 26.251379 0.000000 0.000000 0.000000 7.125000 0.000000 0.000000 24.354562 54.685788 -6.064054
